<svg id="visual" viewBox="0 0 900 600" width="900" height="600" xmlns="http://www.w3.org/2000/svg" xmlns:xlink="http://www.w3.org/1999/xlink" version="1.1"><rect width="900" height="600" fill="#ffffff"></rect><g><g transform="translate(722 124)"><path d="M0 -34.7L30 -17.3L30 17.3L0 34.7L-30 17.3L-30 -17.3Z" fill="#f0f0f0"></path></g><g transform="translate(124 411)"><path d="M0 -32L27.7 -16L27.7 16L0 32L-27.7 16L-27.7 -16Z" fill="#f0f0f0"></path></g><g transform="translate(273 314)"><path d="M0 -5L4.3 -2.5L4.3 2.5L0 5L-4.3 2.5L-4.3 -2.5Z" fill="#f0f0f0"></path></g><g transform="translate(92 531)"><path d="M0 -17L14.7 -8.5L14.7 8.5L0 17L-14.7 8.5L-14.7 -8.5Z" fill="#f0f0f0"></path></g><g transform="translate(284 473)"><path d="M0 -8L6.9 -4L6.9 4L0 8L-6.9 4L-6.9 -4Z" fill="#f0f0f0"></path></g><g transform="translate(66 131)"><path d="M0 -26L22.5 -13L22.5 13L0 26L-22.5 13L-22.5 -13Z" fill="#f0f0f0"></path></g><g transform="translate(760 468)"><path d="M0 -13L11.3 -6.5L11.3 6.5L0 13L-11.3 6.5L-11.3 -6.5Z" fill="#f0f0f0"></path></g><g transform="translate(787 209)"><path d="M0 -24L20.8 -12L20.8 12L0 24L-20.8 12L-20.8 -12Z" fill="#f0f0f0"></path></g><g transform="translate(692 401)"><path d="M0 -32L27.7 -16L27.7 16L0 32L-27.7 16L-27.7 -16Z" fill="#f0f0f0"></path></g><g transform="translate(665 165)"><path d="M0 -8L6.9 -4L6.9 4L0 8L-6.9 4L-6.9 -4Z" fill="#f0f0f0"></path></g><g transform="translate(545 396)"><path d="M0 -19L16.5 -9.5L16.5 9.5L0 19L-16.5 9.5L-16.5 -9.5Z" fill="#f0f0f0"></path></g><g transform="translate(745 312)"><path d="M0 -33L28.6 -16.5L28.6 16.5L0 33L-28.6 16.5L-28.6 -16.5Z" fill="#f0f0f0"></path></g><g transform="translate(387 346)"><path d="M0 -12L10.4 -6L10.4 6L0 12L-10.4 6L-10.4 -6Z" fill="#f0f0f0"></path></g><g transform="translate(421 558)"><path d="M0 -30L26 -15L26 15L0 30L-26 15L-26 -15Z" fill="#f0f0f0"></path></g><g transform="translate(856 177)"><path d="M0 -12L10.4 -6L10.4 6L0 12L-10.4 6L-10.4 -6Z" fill="#f0f0f0"></path></g><g transform="translate(431 285)"><path d="M0 -17L14.7 -8.5L14.7 8.5L0 17L-14.7 8.5L-14.7 -8.5Z" fill="#f0f0f0"></path></g><g transform="translate(659 533)"><path d="M0 -8L6.9 -4L6.9 4L0 8L-6.9 4L-6.9 -4Z" fill="#f0f0f0"></path></g><g transform="translate(833 311)"><path d="M0 -13L11.3 -6.5L11.3 6.5L0 13L-11.3 6.5L-11.3 -6.5Z" fill="#f0f0f0"></path></g><g transform="translate(188 500)"><path d="M0 -10L8.7 -5L8.7 5L0 10L-8.7 5L-8.7 -5Z" fill="#f0f0f0"></path></g><g transform="translate(131 253)"><path d="M0 -6L5.2 -3L5.2 3L0 6L-5.2 3L-5.2 -3Z" fill="#f0f0f0"></path></g><g transform="translate(442 169)"><path d="M0 -6L5.2 -3L5.2 3L0 6L-5.2 3L-5.2 -3Z" fill="#f0f0f0"></path></g><g transform="translate(792 396)"><path d="M0 -14L12.1 -7L12.1 7L0 14L-12.1 7L-12.1 -7Z" fill="#f0f0f0"></path></g><g transform="translate(549 211)"><path d="M0 -10L8.7 -5L8.7 5L0 10L-8.7 5L-8.7 -5Z" fill="#f0f0f0"></path></g><g transform="translate(334 412)"><path d="M0 -13L11.3 -6.5L11.3 6.5L0 13L-11.3 6.5L-11.3 -6.5Z" fill="#f0f0f0"></path></g><g transform="translate(43 50)"><path d="M0 -16L13.9 -8L13.9 8L0 16L-13.9 8L-13.9 -8Z" fill="#f0f0f0"></path></g><g transform="translate(462 424)"><path d="M0 -30L26 -15L26 15L0 30L-26 15L-26 -15Z" fill="#f0f0f0"></path></g><g transform="translate(315 38)"><path d="M0 -23L19.9 -11.5L19.9 11.5L0 23L-19.9 11.5L-19.9 -11.5Z" fill="#f0f0f0"></path></g><g transform="translate(753 38)"><path d="M0 -20L17.3 -10L17.3 10L0 20L-17.3 10L-17.3 -10Z" fill="#f0f0f0"></path></g><g transform="translate(207 273)"><path d="M0 -29L25.1 -14.5L25.1 14.5L0 29L-25.1 14.5L-25.1 -14.5Z" fill="#f0f0f0"></path></g><g transform="translate(827 39)"><path d="M0 -4L3.5 -2L3.5 2L0 4L-3.5 2L-3.5 -2Z" fill="#f0f0f0"></path></g><g transform="translate(815 528)"><path d="M0 -30L26 -15L26 15L0 30L-26 15L-26 -15Z" fill="#f0f0f0"></path></g><g transform="translate(852 444)"><path d="M0 -21L18.2 -10.5L18.2 10.5L0 21L-18.2 10.5L-18.2 -10.5Z" fill="#f0f0f0"></path></g><g transform="translate(404 68)"><path d="M0 -13L11.3 -6.5L11.3 6.5L0 13L-11.3 6.5L-11.3 -6.5Z" fill="#f0f0f0"></path></g><g transform="translate(571 505)"><path d="M0 -17L14.7 -8.5L14.7 8.5L0 17L-14.7 8.5L-14.7 -8.5Z" fill="#f0f0f0"></path></g><g transform="translate(243 408)"><path d="M0 -26L22.5 -13L22.5 13L0 26L-22.5 13L-22.5 -13Z" fill="#f0f0f0"></path></g><g transform="translate(242 178)"><path d="M0 -33L28.6 -16.5L28.6 16.5L0 33L-28.6 16.5L-28.6 -16.5Z" fill="#f0f0f0"></path></g><g transform="translate(88 324)"><path d="M0 -32L27.7 -16L27.7 16L0 32L-27.7 16L-27.7 -16Z" fill="#f0f0f0"></path></g><g transform="translate(600 442)"><path d="M0 -15L13 -7.5L13 7.5L0 15L-13 7.5L-13 -7.5Z" fill="#f0f0f0"></path></g><g transform="translate(564 80)"><path d="M0 -9L7.8 -4.5L7.8 4.5L0 9L-7.8 4.5L-7.8 -4.5Z" fill="#f0f0f0"></path></g><g transform="translate(193 46)"><path d="M0 -26L22.5 -13L22.5 13L0 26L-22.5 13L-22.5 -13Z" fill="#f0f0f0"></path></g><g transform="translate(368 139)"><path d="M0 -8L6.9 -4L6.9 4L0 8L-6.9 4L-6.9 -4Z" fill="#f0f0f0"></path></g><g transform="translate(333 561)"><path d="M0 -11L9.5 -5.5L9.5 5.5L0 11L-9.5 5.5L-9.5 -5.5Z" fill="#f0f0f0"></path></g><g transform="translate(56 220)"><path d="M0 -29L25.1 -14.5L25.1 14.5L0 29L-25.1 14.5L-25.1 -14.5Z" fill="#f0f0f0"></path></g><g transform="translate(161 174)"><path d="M0 -30L26 -15L26 15L0 30L-26 15L-26 -15Z" fill="#f0f0f0"></path></g><g transform="translate(675 278)"><path d="M0 -29L25.1 -14.5L25.1 14.5L0 29L-25.1 14.5L-25.1 -14.5Z" fill="#f0f0f0"></path></g><g transform="translate(580 313)"><path d="M0 -19L16.5 -9.5L16.5 9.5L0 19L-16.5 9.5L-16.5 -9.5Z" fill="#f0f0f0"></path></g><g transform="translate(385 226)"><path d="M0 -11L9.5 -5.5L9.5 5.5L0 11L-9.5 5.5L-9.5 -5.5Z" fill="#f0f0f0"></path></g><g transform="translate(52 383)"><path d="M0 -31L26.8 -15.5L26.8 15.5L0 31L-26.8 15.5L-26.8 -15.5Z" fill="#f0f0f0"></path></g><g transform="translate(238 551)"><path d="M0 -32L27.7 -16L27.7 16L0 32L-27.7 16L-27.7 -16Z" fill="#f0f0f0"></path></g><g transform="translate(271 110)"><path d="M0 -15L13 -7.5L13 7.5L0 15L-13 7.5L-13 -7.5Z" fill="#f0f0f0"></path></g><g transform="translate(35 462)"><path d="M0 -6L5.2 -3L5.2 3L0 6L-5.2 3L-5.2 -3Z" fill="#f0f0f0"></path></g><g transform="translate(319 202)"><path d="M0 -11L9.5 -5.5L9.5 5.5L0 11L-9.5 5.5L-9.5 -5.5Z" fill="#f0f0f0"></path></g><g transform="translate(507 308)"><path d="M0 -15L13 -7.5L13 7.5L0 15L-13 7.5L-13 -7.5Z" fill="#f0f0f0"></path></g><g transform="translate(502 528)"><path d="M0 -15L13 -7.5L13 7.5L0 15L-13 7.5L-13 -7.5Z" fill="#f0f0f0"></path></g><g transform="translate(685 57)"><path d="M0 -15L13 -7.5L13 7.5L0 15L-13 7.5L-13 -7.5Z" fill="#f0f0f0"></path></g><g transform="translate(498 120)"><path d="M0 -28L24.2 -14L24.2 14L0 28L-24.2 14L-24.2 -14Z" fill="#f0f0f0"></path></g><g transform="translate(126 71)"><path d="M0 -6L5.2 -3L5.2 3L0 6L-5.2 3L-5.2 -3Z" fill="#f0f0f0"></path></g><g transform="translate(188 345)"><path d="M0 -18L15.6 -9L15.6 9L0 18L-15.6 9L-15.6 -9Z" fill="#f0f0f0"></path></g><g transform="translate(331 272)"><path d="M0 -6L5.2 -3L5.2 3L0 6L-5.2 3L-5.2 -3Z" fill="#f0f0f0"></path></g><g transform="translate(357 493)"><path d="M0 -18L15.6 -9L15.6 9L0 18L-15.6 9L-15.6 -9Z" fill="#f0f0f0"></path></g><g transform="translate(729 542)"><path d="M0 -30L26 -15L26 15L0 30L-26 15L-26 -15Z" fill="#f0f0f0"></path></g><g transform="translate(619 371)"><path d="M0 -15L13 -7.5L13 7.5L0 15L-13 7.5L-13 -7.5Z" fill="#f0f0f0"></path></g><g transform="translate(479 42)"><path d="M0 -18L15.6 -9L15.6 9L0 18L-15.6 9L-15.6 -9Z" fill="#f0f0f0"></path></g><g transform="translate(480 231)"><path d="M0 -28L24.2 -14L24.2 14L0 28L-24.2 14L-24.2 -14Z" fill="#f0f0f0"></path></g><g transform="translate(830 112)"><path d="M0 -12L10.4 -6L10.4 6L0 12L-10.4 6L-10.4 -6Z" fill="#f0f0f0"></path></g><g transform="translate(594 156)"><path d="M0 -22L19.1 -11L19.1 11L0 22L-19.1 11L-19.1 -11Z" fill="#f0f0f0"></path></g><g transform="translate(611 245)"><path d="M0 -9L7.8 -4.5L7.8 4.5L0 9L-7.8 4.5L-7.8 -4.5Z" fill="#f0f0f0"></path></g><g transform="translate(431 488)"><path d="M0 -18L15.6 -9L15.6 9L0 18L-15.6 9L-15.6 -9Z" fill="#f0f0f0"></path></g><g transform="translate(861 247)"><path d="M0 -11L9.5 -5.5L9.5 5.5L0 11L-9.5 5.5L-9.5 -5.5Z" fill="#f0f0f0"></path></g></g></svg>