<svg xmlns="http://www.w3.org/2000/svg" version="1.1" xmlns:xlink="http://www.w3.org/1999/xlink" xmlns:svgjs="http://svgjs.com/svgjs" width="1440" height="560" preserveAspectRatio="none" viewBox="0 0 1440 560"><g mask="url(&quot;#SvgjsMask3340&quot;)" fill="none"><rect width="1440" height="560" x="0" y="0" fill="rgba(14, 26, 65, 1)"></rect><g transform="translate(374.4, -5.6)"><use xlink:href="#SvgjsPath3341" x="382.5" y="280" fill="rgba(238, 85, 34, 1)"></use><use xlink:href="#SvgjsPath3342" x="397.5" y="280" fill="rgba(238, 85, 34, 1)"></use><use xlink:href="#SvgjsPath3343" x="412.5" y="280" fill="rgba(255, 255, 255, 1)"></use><use xlink:href="#SvgjsPath3344" x="427.5" y="280" fill="rgba(255, 255, 255, 1)"></use><use xlink:href="#SvgjsPath3345" x="442.5" y="280" fill="rgba(238, 85, 34, 1)"></use><use xlink:href="#SvgjsPath3341" x="457.5" y="280" fill="rgba(255, 255, 255, 1)"></use><use xlink:href="#SvgjsPath3343" x="472.5" y="280" fill="rgba(255, 255, 255, 1)"></use><use xlink:href="#SvgjsPath3346" x="487.5" y="280" fill="rgba(255, 255, 255, 1)"></use><use xlink:href="#SvgjsPath3347" x="502.5" y="280" fill="rgba(255, 255, 255, 1)"></use><use xlink:href="#SvgjsPath3347" x="517.5" y="280" fill="rgba(238, 85, 34, 1)"></use><use xlink:href="#SvgjsPath3343" x="532.5" y="280" fill="rgba(238, 85, 34, 1)"></use><use xlink:href="#SvgjsPath3348" x="547.5" y="280" fill="rgba(238, 85, 34, 1)"></use><use xlink:href="#SvgjsPath3346" x="562.5" y="280" fill="rgba(255, 255, 255, 1)"></use><use xlink:href="#SvgjsPath3345" x="577.5" y="280" fill="rgba(238, 85, 34, 1)"></use><use xlink:href="#SvgjsPath3341" x="592.5" y="280" fill="rgba(238, 85, 34, 1)"></use><use xlink:href="#SvgjsPath3348" x="607.5" y="280" fill="rgba(238, 85, 34, 1)"></use><use xlink:href="#SvgjsPath3341" x="622.5" y="280" fill="rgba(238, 85, 34, 1)"></use><use xlink:href="#SvgjsPath3345" x="637.5" y="280" fill="rgba(238, 85, 34, 1)"></use><use xlink:href="#SvgjsPath3342" x="652.5" y="280" fill="rgba(255, 255, 255, 1)"></use><use xlink:href="#SvgjsPath3341" x="667.5" y="280" fill="rgba(238, 85, 34, 1)"></use><use xlink:href="#SvgjsPath3341" x="682.5" y="280" fill="rgba(238, 85, 34, 1)"></use><use xlink:href="#SvgjsPath3348" x="697.5" y="280" fill="rgba(255, 255, 255, 1)"></use><use xlink:href="#SvgjsPath3343" x="712.5" y="280" fill="rgba(238, 85, 34, 1)"></use><use xlink:href="#SvgjsPath3347" x="727.5" y="280" fill="rgba(238, 85, 34, 1)"></use><use xlink:href="#SvgjsPath3347" x="742.5" y="280" fill="rgba(255, 255, 255, 1)"></use><use xlink:href="#SvgjsPath3346" x="757.5" y="280" fill="rgba(255, 255, 255, 1)"></use><use xlink:href="#SvgjsPath3348" x="772.5" y="280" fill="rgba(238, 85, 34, 1)"></use><use xlink:href="#SvgjsPath3348" x="787.5" y="280" fill="rgba(255, 255, 255, 1)"></use><use xlink:href="#SvgjsPath3343" x="802.5" y="280" fill="rgba(255, 255, 255, 1)"></use><use xlink:href="#SvgjsPath3348" x="817.5" y="280" fill="rgba(255, 255, 255, 1)"></use><use xlink:href="#SvgjsPath3342" x="832.5" y="280" fill="rgba(238, 85, 34, 1)"></use><use xlink:href="#SvgjsPath3343" x="847.5" y="280" fill="rgba(255, 255, 255, 1)"></use><use xlink:href="#SvgjsPath3348" x="862.5" y="280" fill="rgba(255, 255, 255, 1)"></use><use xlink:href="#SvgjsPath3345" x="877.5" y="280" fill="rgba(255, 255, 255, 1)"></use><use xlink:href="#SvgjsPath3346" x="892.5" y="280" fill="rgba(238, 85, 34, 1)"></use><use xlink:href="#SvgjsPath3341" x="907.5" y="280" fill="rgba(255, 255, 255, 1)"></use><use xlink:href="#SvgjsPath3343" x="922.5" y="280" fill="rgba(238, 85, 34, 1)"></use><use xlink:href="#SvgjsPath3347" x="937.5" y="280" fill="rgba(238, 85, 34, 1)"></use><use xlink:href="#SvgjsPath3346" x="952.5" y="280" fill="rgba(238, 85, 34, 1)"></use><use xlink:href="#SvgjsPath3346" x="967.5" y="280" fill="rgba(255, 255, 255, 1)"></use><use xlink:href="#SvgjsPath3341" x="982.5" y="280" fill="rgba(238, 85, 34, 1)"></use><use xlink:href="#SvgjsPath3348" x="997.5" y="280" fill="rgba(238, 85, 34, 1)"></use><use xlink:href="#SvgjsPath3342" x="1012.5" y="280" fill="rgba(238, 85, 34, 1)"></use><use xlink:href="#SvgjsPath3341" x="1027.5" y="280" fill="rgba(255, 255, 255, 1)"></use><use xlink:href="#SvgjsPath3345" x="1042.5" y="280" fill="rgba(255, 255, 255, 1)"></use><use xlink:href="#SvgjsPath3341" x="1057.5" y="280" fill="rgba(255, 255, 255, 1)"></use></g></g><defs><mask id="SvgjsMask3340"><rect width="1440" height="560" fill="#ffffff"></rect></mask><path d="M-6 0 a6 6 0 1 0 12 0 a6 6 0 1 0 -12 0zM-6 15 a6 6 0 1 0 12 0 a6 6 0 1 0 -12 0zM-6 -15 a6 6 0 1 0 12 0 a6 6 0 1 0 -12 0z" id="SvgjsPath3344"></path><path d="M-6 0 a6 6 0 1 0 12 0 a6 6 0 1 0 -12 0zM-6 15 a6 6 0 1 0 12 0 a6 6 0 1 0 -12 0zM-6 -15 a6 6 0 1 0 12 0 a6 6 0 1 0 -12 0zM-6 30 a6 6 0 1 0 12 0 a6 6 0 1 0 -12 0zM-6 -30 a6 6 0 1 0 12 0 a6 6 0 1 0 -12 0z" id="SvgjsPath3348"></path><path d="M-6 0 a6 6 0 1 0 12 0 a6 6 0 1 0 -12 0zM-6 15 a6 6 0 1 0 12 0 a6 6 0 1 0 -12 0zM-6 -15 a6 6 0 1 0 12 0 a6 6 0 1 0 -12 0zM-6 30 a6 6 0 1 0 12 0 a6 6 0 1 0 -12 0zM-6 -30 a6 6 0 1 0 12 0 a6 6 0 1 0 -12 0zM-6 45 a6 6 0 1 0 12 0 a6 6 0 1 0 -12 0zM-6 -45 a6 6 0 1 0 12 0 a6 6 0 1 0 -12 0z" id="SvgjsPath3341"></path><path d="M-6 0 a6 6 0 1 0 12 0 a6 6 0 1 0 -12 0zM-6 15 a6 6 0 1 0 12 0 a6 6 0 1 0 -12 0zM-6 -15 a6 6 0 1 0 12 0 a6 6 0 1 0 -12 0zM-6 30 a6 6 0 1 0 12 0 a6 6 0 1 0 -12 0zM-6 -30 a6 6 0 1 0 12 0 a6 6 0 1 0 -12 0zM-6 45 a6 6 0 1 0 12 0 a6 6 0 1 0 -12 0zM-6 -45 a6 6 0 1 0 12 0 a6 6 0 1 0 -12 0zM-6 60 a6 6 0 1 0 12 0 a6 6 0 1 0 -12 0zM-6 -60 a6 6 0 1 0 12 0 a6 6 0 1 0 -12 0z" id="SvgjsPath3346"></path><path d="M-6 0 a6 6 0 1 0 12 0 a6 6 0 1 0 -12 0zM-6 15 a6 6 0 1 0 12 0 a6 6 0 1 0 -12 0zM-6 -15 a6 6 0 1 0 12 0 a6 6 0 1 0 -12 0zM-6 30 a6 6 0 1 0 12 0 a6 6 0 1 0 -12 0zM-6 -30 a6 6 0 1 0 12 0 a6 6 0 1 0 -12 0zM-6 45 a6 6 0 1 0 12 0 a6 6 0 1 0 -12 0zM-6 -45 a6 6 0 1 0 12 0 a6 6 0 1 0 -12 0zM-6 60 a6 6 0 1 0 12 0 a6 6 0 1 0 -12 0zM-6 -60 a6 6 0 1 0 12 0 a6 6 0 1 0 -12 0zM-6 75 a6 6 0 1 0 12 0 a6 6 0 1 0 -12 0zM-6 -75 a6 6 0 1 0 12 0 a6 6 0 1 0 -12 0z" id="SvgjsPath3342"></path><path d="M-6 0 a6 6 0 1 0 12 0 a6 6 0 1 0 -12 0zM-6 15 a6 6 0 1 0 12 0 a6 6 0 1 0 -12 0zM-6 -15 a6 6 0 1 0 12 0 a6 6 0 1 0 -12 0zM-6 30 a6 6 0 1 0 12 0 a6 6 0 1 0 -12 0zM-6 -30 a6 6 0 1 0 12 0 a6 6 0 1 0 -12 0zM-6 45 a6 6 0 1 0 12 0 a6 6 0 1 0 -12 0zM-6 -45 a6 6 0 1 0 12 0 a6 6 0 1 0 -12 0zM-6 60 a6 6 0 1 0 12 0 a6 6 0 1 0 -12 0zM-6 -60 a6 6 0 1 0 12 0 a6 6 0 1 0 -12 0zM-6 75 a6 6 0 1 0 12 0 a6 6 0 1 0 -12 0zM-6 -75 a6 6 0 1 0 12 0 a6 6 0 1 0 -12 0zM-6 90 a6 6 0 1 0 12 0 a6 6 0 1 0 -12 0zM-6 -90 a6 6 0 1 0 12 0 a6 6 0 1 0 -12 0z" id="SvgjsPath3347"></path><path d="M-6 0 a6 6 0 1 0 12 0 a6 6 0 1 0 -12 0zM-6 15 a6 6 0 1 0 12 0 a6 6 0 1 0 -12 0zM-6 -15 a6 6 0 1 0 12 0 a6 6 0 1 0 -12 0zM-6 30 a6 6 0 1 0 12 0 a6 6 0 1 0 -12 0zM-6 -30 a6 6 0 1 0 12 0 a6 6 0 1 0 -12 0zM-6 45 a6 6 0 1 0 12 0 a6 6 0 1 0 -12 0zM-6 -45 a6 6 0 1 0 12 0 a6 6 0 1 0 -12 0zM-6 60 a6 6 0 1 0 12 0 a6 6 0 1 0 -12 0zM-6 -60 a6 6 0 1 0 12 0 a6 6 0 1 0 -12 0zM-6 75 a6 6 0 1 0 12 0 a6 6 0 1 0 -12 0zM-6 -75 a6 6 0 1 0 12 0 a6 6 0 1 0 -12 0zM-6 90 a6 6 0 1 0 12 0 a6 6 0 1 0 -12 0zM-6 -90 a6 6 0 1 0 12 0 a6 6 0 1 0 -12 0zM-6 105 a6 6 0 1 0 12 0 a6 6 0 1 0 -12 0zM-6 -105 a6 6 0 1 0 12 0 a6 6 0 1 0 -12 0z" id="SvgjsPath3345"></path><path d="M-6 0 a6 6 0 1 0 12 0 a6 6 0 1 0 -12 0zM-6 15 a6 6 0 1 0 12 0 a6 6 0 1 0 -12 0zM-6 -15 a6 6 0 1 0 12 0 a6 6 0 1 0 -12 0zM-6 30 a6 6 0 1 0 12 0 a6 6 0 1 0 -12 0zM-6 -30 a6 6 0 1 0 12 0 a6 6 0 1 0 -12 0zM-6 45 a6 6 0 1 0 12 0 a6 6 0 1 0 -12 0zM-6 -45 a6 6 0 1 0 12 0 a6 6 0 1 0 -12 0zM-6 60 a6 6 0 1 0 12 0 a6 6 0 1 0 -12 0zM-6 -60 a6 6 0 1 0 12 0 a6 6 0 1 0 -12 0zM-6 75 a6 6 0 1 0 12 0 a6 6 0 1 0 -12 0zM-6 -75 a6 6 0 1 0 12 0 a6 6 0 1 0 -12 0zM-6 90 a6 6 0 1 0 12 0 a6 6 0 1 0 -12 0zM-6 -90 a6 6 0 1 0 12 0 a6 6 0 1 0 -12 0zM-6 105 a6 6 0 1 0 12 0 a6 6 0 1 0 -12 0zM-6 -105 a6 6 0 1 0 12 0 a6 6 0 1 0 -12 0zM-6 120 a6 6 0 1 0 12 0 a6 6 0 1 0 -12 0zM-6 -120 a6 6 0 1 0 12 0 a6 6 0 1 0 -12 0z" id="SvgjsPath3343"></path></defs></svg>