<svg id="visual" viewBox="0 0 900 600" width="900" height="600" xmlns="http://www.w3.org/2000/svg" xmlns:xlink="http://www.w3.org/1999/xlink" version="1.1"><rect x="0" y="0" width="900" height="600" fill="#feffff"></rect><path d="M0 529L10 524.5C20 520 40 511 60 506.5C80 502 100 502 120 509.2C140 516.3 160 530.7 180 525.2C200 519.7 220 494.3 240 485.2C260 476 280 483 300 495.7C320 508.3 340 526.7 360 524.5C380 522.3 400 499.7 420 488.5C440 477.3 460 477.7 480 487.5C500 497.3 520 516.7 540 519.8C560 523 580 510 600 511C620 512 640 527 660 537.5C680 548 700 554 720 541.8C740 529.7 760 499.3 780 493.3C800 487.3 820 505.7 840 517.3C860 529 880 534 890 536.5L900 539L900 0L890 0C880 0 860 0 840 0C820 0 800 0 780 0C760 0 740 0 720 0C700 0 680 0 660 0C640 0 620 0 600 0C580 0 560 0 540 0C520 0 500 0 480 0C460 0 440 0 420 0C400 0 380 0 360 0C340 0 320 0 300 0C280 0 260 0 240 0C220 0 200 0 180 0C160 0 140 0 120 0C100 0 80 0 60 0C40 0 20 0 10 0L0 0Z" fill="#fcaf3c"></path><path d="M0 444L10 441.7C20 439.3 40 434.7 60 435.5C80 436.3 100 442.7 120 448.3C140 454 160 459 180 460.5C200 462 220 460 240 457.7C260 455.3 280 452.7 300 441C320 429.3 340 408.7 360 402.8C380 397 400 406 420 404.5C440 403 460 391 480 397.2C500 403.3 520 427.7 540 444.3C560 461 580 470 600 463.5C620 457 640 435 660 419.5C680 404 700 395 720 404.7C740 414.3 760 442.7 780 458C800 473.3 820 475.7 840 474.7C860 473.7 880 469.3 890 467.2L900 465L900 0L890 0C880 0 860 0 840 0C820 0 800 0 780 0C760 0 740 0 720 0C700 0 680 0 660 0C640 0 620 0 600 0C580 0 560 0 540 0C520 0 500 0 480 0C460 0 440 0 420 0C400 0 380 0 360 0C340 0 320 0 300 0C280 0 260 0 240 0C220 0 200 0 180 0C160 0 140 0 120 0C100 0 80 0 60 0C40 0 20 0 10 0L0 0Z" fill="#fdb54a"></path><path d="M0 341L10 339.7C20 338.3 40 335.7 60 328.5C80 321.3 100 309.7 120 306.8C140 304 160 310 180 317.3C200 324.7 220 333.3 240 339.2C260 345 280 348 300 340.7C320 333.3 340 315.7 360 321.8C380 328 400 358 420 370.8C440 383.7 460 379.3 480 369.3C500 359.3 520 343.7 540 335C560 326.3 580 324.7 600 328C620 331.3 640 339.7 660 343.8C680 348 700 348 720 342C740 336 760 324 780 325.3C800 326.7 820 341.3 840 354.2C860 367 880 378 890 383.5L900 389L900 0L890 0C880 0 860 0 840 0C820 0 800 0 780 0C760 0 740 0 720 0C700 0 680 0 660 0C640 0 620 0 600 0C580 0 560 0 540 0C520 0 500 0 480 0C460 0 440 0 420 0C400 0 380 0 360 0C340 0 320 0 300 0C280 0 260 0 240 0C220 0 200 0 180 0C160 0 140 0 120 0C100 0 80 0 60 0C40 0 20 0 10 0L0 0Z" fill="#feba57"></path><path d="M0 233L10 241.8C20 250.7 40 268.3 60 272.3C80 276.3 100 266.7 120 266.5C140 266.3 160 275.7 180 271.7C200 267.7 220 250.3 240 246.2C260 242 280 251 300 248.3C320 245.7 340 231.3 360 223.7C380 216 400 215 420 229.5C440 244 460 274 480 289.5C500 305 520 306 540 293C560 280 580 253 600 249.3C620 245.7 640 265.3 660 273.7C680 282 700 279 720 280.5C740 282 760 288 780 292.5C800 297 820 300 840 292.3C860 284.7 880 266.3 890 257.2L900 248L900 0L890 0C880 0 860 0 840 0C820 0 800 0 780 0C760 0 740 0 720 0C700 0 680 0 660 0C640 0 620 0 600 0C580 0 560 0 540 0C520 0 500 0 480 0C460 0 440 0 420 0C400 0 380 0 360 0C340 0 320 0 300 0C280 0 260 0 240 0C220 0 200 0 180 0C160 0 140 0 120 0C100 0 80 0 60 0C40 0 20 0 10 0L0 0Z" fill="#fec063"></path><path d="M0 195L10 182.3C20 169.7 40 144.3 60 132.8C80 121.3 100 123.7 120 136.7C140 149.7 160 173.3 180 181.7C200 190 220 183 240 181.3C260 179.7 280 183.3 300 182.7C320 182 340 177 360 169C380 161 400 150 420 153.5C440 157 460 175 480 187C500 199 520 205 540 202.3C560 199.7 580 188.3 600 180.2C620 172 640 167 660 165.7C680 164.3 700 166.7 720 172.7C740 178.7 760 188.3 780 182.8C800 177.3 820 156.7 840 151.5C860 146.3 880 156.7 890 161.8L900 167L900 0L890 0C880 0 860 0 840 0C820 0 800 0 780 0C760 0 740 0 720 0C700 0 680 0 660 0C640 0 620 0 600 0C580 0 560 0 540 0C520 0 500 0 480 0C460 0 440 0 420 0C400 0 380 0 360 0C340 0 320 0 300 0C280 0 260 0 240 0C220 0 200 0 180 0C160 0 140 0 120 0C100 0 80 0 60 0C40 0 20 0 10 0L0 0Z" fill="#ffc56f"></path><path d="M0 130L10 117.8C20 105.7 40 81.3 60 67.5C80 53.7 100 50.3 120 56.3C140 62.3 160 77.7 180 87.2C200 96.7 220 100.3 240 95.5C260 90.7 280 77.3 300 76C320 74.7 340 85.3 360 87.8C380 90.3 400 84.7 420 88.5C440 92.3 460 105.7 480 110.8C500 116 520 113 540 103.3C560 93.7 580 77.3 600 65.2C620 53 640 45 660 55C680 65 700 93 720 105.2C740 117.3 760 113.7 780 110.2C800 106.7 820 103.3 840 93C860 82.7 880 65.3 890 56.7L900 48L900 0L890 0C880 0 860 0 840 0C820 0 800 0 780 0C760 0 740 0 720 0C700 0 680 0 660 0C640 0 620 0 600 0C580 0 560 0 540 0C520 0 500 0 480 0C460 0 440 0 420 0C400 0 380 0 360 0C340 0 320 0 300 0C280 0 260 0 240 0C220 0 200 0 180 0C160 0 140 0 120 0C100 0 80 0 60 0C40 0 20 0 10 0L0 0Z" fill="#ffca7b"></path></svg>