<svg id="visual" viewBox="0 0 900 600" width="900" height="600" xmlns="http://www.w3.org/2000/svg" xmlns:xlink="http://www.w3.org/1999/xlink" version="1.1"><path d="M764 0L722 0L722 50L774 50L774 100L728 100L728 150L758 150L758 200L706 200L706 250L820 250L820 300L670 300L670 350L731 350L731 400L810 400L810 450L817 450L817 500L693 500L693 550L748 550L748 600L0 600L0 550L0 550L0 500L0 500L0 450L0 450L0 400L0 400L0 350L0 350L0 300L0 300L0 250L0 250L0 200L0 200L0 150L0 150L0 100L0 100L0 50L0 50L0 0L0 0Z" fill="#ffa98a"></path><path d="M601 0L637 0L637 50L554 50L554 100L562 100L562 150L641 150L641 200L550 200L550 250L615 250L615 300L621 300L621 350L621 350L621 400L677 400L677 450L674 450L674 500L595 500L595 550L638 550L638 600L0 600L0 550L0 550L0 500L0 500L0 450L0 450L0 400L0 400L0 350L0 350L0 300L0 300L0 250L0 250L0 200L0 200L0 150L0 150L0 100L0 100L0 50L0 50L0 0L0 0Z" fill="#fe9d7a"></path><path d="M470 0L434 0L434 50L525 50L525 100L526 100L526 150L424 150L424 200L475 200L475 250L438 250L438 300L508 300L508 350L556 350L556 400L452 400L452 450L463 450L463 500L448 500L448 550L436 550L436 600L0 600L0 550L0 550L0 500L0 500L0 450L0 450L0 400L0 400L0 350L0 350L0 300L0 300L0 250L0 250L0 200L0 200L0 150L0 150L0 100L0 100L0 50L0 50L0 0L0 0Z" fill="#fd916a"></path><path d="M370 0L363 0L363 50L337 50L337 100L309 100L309 150L437 150L437 200L344 200L344 250L423 250L423 300L384 300L384 350L337 350L337 400L331 400L331 450L404 450L404 500L431 500L431 550L355 550L355 600L0 600L0 550L0 550L0 500L0 500L0 450L0 450L0 400L0 400L0 350L0 350L0 300L0 300L0 250L0 250L0 200L0 200L0 150L0 150L0 100L0 100L0 50L0 50L0 0L0 0Z" fill="#fb855a"></path><path d="M275 0L305 0L305 50L301 50L301 100L218 100L218 150L186 150L186 200L306 200L306 250L192 250L192 300L213 300L213 350L313 350L313 400L188 400L188 450L236 450L236 500L255 500L255 550L278 550L278 600L0 600L0 550L0 550L0 500L0 500L0 450L0 450L0 400L0 400L0 350L0 350L0 300L0 300L0 250L0 250L0 200L0 200L0 150L0 150L0 100L0 100L0 50L0 50L0 0L0 0Z" fill="#f8784a"></path><path d="M166 0L115 0L115 50L176 50L176 100L154 100L154 150L69 150L69 200L74 200L74 250L157 250L157 300L90 300L90 350L175 350L175 400L156 400L156 450L163 450L163 500L155 500L155 550L73 550L73 600L0 600L0 550L0 550L0 500L0 500L0 450L0 450L0 400L0 400L0 350L0 350L0 300L0 300L0 250L0 250L0 200L0 200L0 150L0 150L0 100L0 100L0 50L0 50L0 0L0 0Z" fill="#f56b39"></path></svg>